# xmcd
#
# Track frame offsets: 
#        150
#        20797
#        51655
#        75750
#        94150
#        116875
#        127410
#        154320
#        165900
#        181165
#        200102
#        211477
#        228887
#        251975
#
# Disc length: 3687 seconds
#
# Revision: 3
# Processed by: cddbd v1.5.2PL0 Copyright (c) Steve Scherf et al.
# Submitted via: ExactAudioCopy v0.99pb5
#
DISCID=ca0e650e
DTITLE=Various Artist - The Blues Guitar Box 2 [Disc2]
DYEAR=1991
DGENRE=Blues
TTITLE0=Buck's Boogie/Matt 'Guitar' Murphy
TTITLE1=Trouble Trouble/Otis Rush
TTITLE2=Wound Up Tight/Lonnie Brooks Featuring Johnny Winter
TTITLE3=Stormy Monday Blues/Bobby Bland Featuring Wayne Bennett
TTITLE4=Love That Burns/Fleetwood Mac
TTITLE5=Talking The Blues/B B King
TTITLE6=Howling Wolf/Muddy Waters
TTITLE7=Blue Coat Man/Eddie Boyd Featuring Peter Green
TTITLE8=You're Gonna Need My Help Someday/Otis Spann Featuring Muddy W
TTITLE8=aters
TTITLE9=Shuggie's Boogie/Shuggie Otis
TTITLE10=Black Cat/Lightning Hopkins
TTITLE11=Come On Back Home/J B Hutto and The Hawks
TTITLE12=It Was Rainin'/Johnny Winter
TTITLE13=Catfish Blues/Jimi Hendrix
EXTD=Input by Bill (whall@netcomuk.co.uk)
EXTT0=
EXTT1=
EXTT2=
EXTT3=
EXTT4=
EXTT5=
EXTT6=
EXTT7=
EXTT8=
EXTT9=
EXTT10=
EXTT11=
EXTT12=
EXTT13=
PLAYORDER=
